<?xml version="1.0" encoding="utf-8"?>
<!-- Generator: Adobe Illustrator 15.1.0, SVG Export Plug-In . SVG Version: 6.00 Build 0)  -->
<!DOCTYPE svg PUBLIC "-//W3C//DTD SVG 1.1//EN" "http://www.w3.org/Graphics/SVG/1.1/DTD/svg11.dtd">
<svg version="1.1" id="Layer_1" xmlns="http://www.w3.org/2000/svg" xmlns:xlink="http://www.w3.org/1999/xlink" x="0px" y="0px"
	 width="359px" height="55.28px" viewBox="0 0 359 55.28" enable-background="new 0 0 359 55.28" xml:space="preserve">
<g>
	<path fill-rule="evenodd" clip-rule="evenodd" fill="#FFFFFF" d="M54.149,29.519H41.636v5.774c0,1.885,0.048,3.131,0.146,3.717
		c0.096,0.579,0.329,1.003,0.704,1.291c0.382,0.284,1.114,0.42,2.194,0.42h0.622v0.818h-10.78v-0.818h0.607
		c1.027,0,1.733-0.127,2.119-0.392c0.401-0.253,0.663-0.656,0.77-1.195c0.119-0.558,0.174-1.834,0.174-3.84V23.546
		c0-1.916-0.056-3.133-0.174-3.69c-0.101-0.554-0.349-0.939-0.709-1.153c-0.36-0.208-1.136-0.315-2.348-0.315h-0.439v-0.819h10.78
		v0.819h-0.445c-1.17,0-1.941,0.098-2.306,0.3c-0.352,0.186-0.611,0.549-0.74,1.078c-0.11,0.528-0.175,1.783-0.175,3.78v4.743
		h12.513v-4.743c0-1.916-0.053-3.133-0.155-3.69c-0.11-0.554-0.346-0.939-0.712-1.153c-0.346-0.208-1.136-0.315-2.349-0.315h-0.627
		v-0.819h10.889v0.819h-0.352c-1.178,0-1.946,0.098-2.31,0.3c-0.365,0.186-0.61,0.549-0.745,1.078
		c-0.116,0.528-0.18,1.783-0.18,3.78v11.747c0,1.885,0.053,3.131,0.132,3.717c0.098,0.579,0.329,1.003,0.726,1.291
		c0.379,0.284,1.111,0.42,2.191,0.42h0.538v0.818H50.306v-0.818h0.824c1.007,0,1.716-0.127,2.107-0.392
		c0.394-0.253,0.647-0.656,0.757-1.195c0.102-0.558,0.155-1.834,0.155-3.84V29.519L54.149,29.519z"/>
	<path fill-rule="evenodd" clip-rule="evenodd" fill="#FFFFFF" d="M71.573,29.519c0,3.854,0.77,6.746,2.298,8.672
		c1.547,1.936,3.854,2.898,6.929,2.898c2.703,0,4.833-0.962,6.408-2.898c1.567-1.926,2.344-4.813,2.344-8.635
		c0-3.719-0.771-6.571-2.307-8.555c-1.547-1.994-3.8-2.982-6.717-2.982c-2.889,0-5.109,0.965-6.656,2.915
		C72.343,22.866,71.573,25.727,71.573,29.519L71.573,29.519z M67.53,29.4c0-3.699,1.235-6.672,3.71-8.909
		c2.476-2.239,5.562-3.36,9.255-3.36c3.741,0,6.858,1.108,9.354,3.324c2.515,2.211,3.76,5.236,3.76,9.064
		c0,3.71-1.192,6.714-3.598,9.015c-2.396,2.293-5.547,3.443-9.458,3.443c-3.809,0-6.928-1.15-9.364-3.443
		C68.756,36.233,67.53,33.181,67.53,29.4L67.53,29.4z"/>
	<path fill-rule="evenodd" clip-rule="evenodd" fill="#FFFFFF" d="M107.024,29.378h1.722c1.388,0,2.493-0.132,3.331-0.411
		c0.853-0.276,1.567-0.861,2.121-1.747c0.569-0.875,0.858-1.97,0.858-3.266c0-1.978-0.492-3.432-1.466-4.349
		c-0.971-0.931-2.545-1.398-4.72-1.398c-0.802,0-1.416,0.031-1.846,0.073V29.378L107.024,29.378z M107.024,30.261v5.033
		c0,1.885,0.048,3.131,0.13,3.717c0.098,0.579,0.329,1.003,0.733,1.291c0.383,0.284,1.108,0.42,2.188,0.42h0.796v0.818H99.894
		v-0.818h0.636c1.024,0,1.735-0.127,2.11-0.392c0.411-0.253,0.658-0.656,0.779-1.195c0.095-0.558,0.16-1.834,0.16-3.84V23.546
		c0-1.916-0.065-3.133-0.16-3.69c-0.122-0.554-0.355-0.939-0.712-1.153c-0.371-0.208-1.159-0.315-2.372-0.315h-0.442v-0.819
		l3.002-0.099c2.396-0.082,4.284-0.126,5.615-0.126c2.487,0,4.375,0.188,5.71,0.582c1.34,0.391,2.441,1.077,3.294,2.07
		c0.853,0.985,1.277,2.243,1.277,3.75c0,1.302-0.281,2.461-0.878,3.457c-0.584,1.001-1.415,1.758-2.512,2.278
		c-1.081,0.523-2.99,0.779-5.73,0.779H107.024L107.024,30.261z"/>
	<path fill-rule="evenodd" clip-rule="evenodd" fill="#FFFFFF" d="M131.363,29.378h1.727c1.375,0,2.479-0.132,3.333-0.411
		c0.844-0.276,1.562-0.861,2.116-1.747c0.565-0.875,0.849-1.97,0.849-3.266c0-1.978-0.483-3.432-1.465-4.349
		c-0.968-0.931-2.54-1.398-4.712-1.398c-0.811,0-1.415,0.031-1.848,0.073V29.378L131.363,29.378z M131.363,30.261v5.033
		c0,1.885,0.042,3.131,0.131,3.717c0.096,0.579,0.335,1.003,0.724,1.291c0.388,0.284,1.12,0.42,2.197,0.42h0.802v0.818h-10.991
		v-0.818h0.641c1.024,0,1.733-0.127,2.118-0.392c0.394-0.253,0.653-0.656,0.76-1.195c0.104-0.558,0.155-1.834,0.155-3.84V23.546
		c0-1.916-0.051-3.133-0.155-3.69c-0.107-0.554-0.34-0.939-0.7-1.153c-0.383-0.208-1.159-0.315-2.375-0.315h-0.444v-0.819
		l3.004-0.099c2.411-0.082,4.29-0.126,5.615-0.126c2.489,0,4.377,0.188,5.713,0.582c1.344,0.391,2.436,1.077,3.294,2.07
		c0.854,0.985,1.277,2.243,1.277,3.75c0,1.302-0.295,2.461-0.88,3.457c-0.58,1.001-1.407,1.758-2.501,2.278
		c-1.088,0.523-3.001,0.779-5.755,0.779H131.363L131.363,30.261z"/>
	<path fill-rule="evenodd" clip-rule="evenodd" fill="#FFFFFF" d="M168.034,34.087h0.849l-0.5,7.452h-19.846v-0.818h0.49
		c1.195,0,1.96-0.158,2.3-0.473c0.355-0.324,0.569-0.72,0.67-1.204c0.098-0.495,0.138-1.744,0.138-3.75V23.546
		c0-1.825-0.048-3.03-0.16-3.609c-0.088-0.576-0.318-0.97-0.692-1.201c-0.349-0.23-1.106-0.346-2.256-0.348v-0.819h17.123
		l0.56,5.977h-0.821c-0.383-1.667-0.853-2.855-1.403-3.55c-0.53-0.706-1.184-1.153-1.938-1.324
		c-0.759-0.186-1.963-0.282-3.646-0.284h-3.326v10.059h2.552c1.165,0,1.975-0.105,2.441-0.31c0.468-0.195,0.774-0.495,0.917-0.895
		c0.141-0.416,0.231-1.201,0.231-2.385h0.83v8.189h-0.83c0-1.32-0.121-2.214-0.346-2.661c-0.213-0.459-0.545-0.751-0.976-0.883
		c-0.436-0.136-1.147-0.213-2.171-0.213h-2.647v5.676c0,2.832,0.181,4.506,0.546,5.016c0.363,0.492,1.355,0.74,2.956,0.74h1.792
		c1.262,0,2.298-0.158,3.108-0.473c0.81-0.332,1.578-0.998,2.318-1.994C167.038,37.237,167.614,35.848,168.034,34.087
		L168.034,34.087z"/>
	<path fill-rule="evenodd" clip-rule="evenodd" fill="#FFFFFF" d="M182.18,29.167c0.875-0.02,1.809-0.057,2.736-0.104
		c0.948-0.05,1.762-0.185,2.456-0.388c0.698-0.213,1.261-0.521,1.683-0.922c0.438-0.412,0.776-0.942,1.021-1.609
		c0.248-0.659,0.369-1.463,0.369-2.439c0-1.685-0.417-3.033-1.263-4.045c-0.828-1.013-2.679-1.519-5.505-1.519
		c-0.431,0-0.923,0.014-1.497,0.067V29.167L182.18,29.167z M200.288,41.539h-6.445c-1.136-0.807-2.896-2.895-5.243-6.292
		c-0.757-1.089-1.547-2.121-2.343-3.111c-0.827-1.001-1.381-1.604-1.68-1.82c-0.312-0.23-0.796-0.337-1.438-0.337h-0.959v5.316
		c0,1.885,0.048,3.131,0.127,3.717c0.093,0.579,0.335,1.003,0.697,1.291c0.394,0.284,1.133,0.42,2.211,0.42h1.161v0.818h-11.482
		v-0.818h0.779c1.027,0,1.736-0.127,2.113-0.392c0.413-0.253,0.664-0.656,0.77-1.195c0.113-0.558,0.164-1.834,0.164-3.84V23.546
		c0-1.916-0.051-3.133-0.164-3.69c-0.098-0.554-0.343-0.939-0.714-1.153c-0.359-0.208-1.142-0.315-2.357-0.315h-0.414v-0.819
		l3.438-0.172c2.288-0.104,4.096-0.166,5.45-0.166c2.281,0,4.132,0.222,5.558,0.641c1.43,0.428,2.597,1.12,3.478,2.09
		c0.883,0.959,1.322,2.124,1.322,3.46c0,1.567-0.577,2.906-1.725,4.008c-1.156,1.111-2.85,1.8-5.089,2.071
		c1.004,0.49,2.619,2.228,4.841,5.232c1.809,2.437,3.238,4.034,4.273,4.779c1.032,0.762,2.264,1.165,3.671,1.208V41.539
		L200.288,41.539z"/>
	<path fill-rule="evenodd" clip-rule="evenodd" fill="#FFFFFF" d="M204.628,41.292v-7.705h0.875
		c1.004,5.016,3.369,7.527,7.119,7.527c1.686,0,2.993-0.483,3.91-1.432c0.937-0.968,1.404-2.051,1.404-3.235
		c0-1.201-0.426-2.211-1.229-3.021c-0.813-0.799-2.29-1.663-4.465-2.58c-1.906-0.827-3.364-1.536-4.344-2.154
		c-0.961-0.625-1.732-1.435-2.287-2.425c-0.542-0.991-0.807-2.042-0.807-3.159c0-1.708,0.594-3.128,1.758-4.265
		c1.185-1.142,2.695-1.712,4.51-1.712c1.013,0,1.963,0.171,2.861,0.5c0.899,0.326,1.816,1.009,2.751,2.047
		c0.548-0.655,0.854-1.353,0.923-2.109h0.778v6.281h-0.778c-0.442-1.831-1.235-3.266-2.389-4.318
		c-1.125-1.046-2.436-1.567-3.936-1.567c-1.415,0-2.47,0.383-3.137,1.165c-0.658,0.765-0.996,1.606-0.996,2.526
		c0,1.103,0.414,2.048,1.255,2.81c0.824,0.777,2.315,1.648,4.47,2.611c2.067,0.919,3.559,1.668,4.495,2.233
		c0.929,0.551,1.691,1.319,2.257,2.315c0.564,0.985,0.838,2.13,0.838,3.426c0,2.051-0.687,3.716-2.034,4.999
		c-1.376,1.289-3.201,1.926-5.491,1.926c-2.633,0-4.818-1.013-6.565-3.021c-0.388,0.551-0.681,1.328-0.871,2.335H204.628
		L204.628,41.292z"/>
	<path fill-rule="evenodd" clip-rule="evenodd" fill="#FFFFFF" d="M271.76,23.33h-0.818l0.121-5.761h23.258l0.121,5.761h-0.762
		c-0.265-1.572-0.634-2.712-1.112-3.401c-0.467-0.712-0.976-1.143-1.529-1.3c-0.538-0.16-1.451-0.239-2.771-0.241h-3.843v16.905
		c0,1.877,0.037,3.106,0.124,3.702c0.09,0.585,0.344,1.018,0.72,1.305c0.399,0.284,1.126,0.42,2.192,0.42h1.167v0.818h-11.944
		v-0.818h1.24c1.021,0,1.733-0.127,2.124-0.392c0.392-0.253,0.652-0.656,0.752-1.195c0.127-0.558,0.177-1.834,0.177-3.84V18.388
		h-3.554c-1.541,0-2.567,0.076-3.11,0.227c-0.528,0.146-1.019,0.583-1.502,1.322C272.363,20.68,272.005,21.813,271.76,23.33
		L271.76,23.33z"/>
	<path fill-rule="evenodd" clip-rule="evenodd" fill="#FFFFFF" d="M303.495,29.519c0,3.854,0.756,6.746,2.292,8.672
		c1.541,1.936,3.849,2.898,6.935,2.898c2.695,0,4.824-0.962,6.391-2.898c1.562-1.926,2.352-4.813,2.352-8.635
		c0-3.719-0.773-6.571-2.314-8.555c-1.539-1.994-3.778-2.982-6.709-2.982c-2.897,0-5.112,0.965-6.653,2.915
		C304.25,22.866,303.495,25.727,303.495,29.519L303.495,29.519z M299.44,29.4c0-3.699,1.244-6.672,3.72-8.909
		c2.476-2.239,5.558-3.36,9.255-3.36c3.732,0,6.844,1.108,9.342,3.324c2.515,2.211,3.761,5.236,3.761,9.064
		c0,3.71-1.192,6.714-3.601,9.015c-2.389,2.293-5.539,3.443-9.448,3.443c-3.798,0-6.929-1.15-9.37-3.443
		C300.667,36.233,299.44,33.181,299.44,29.4L299.44,29.4z"/>
	<path fill-rule="evenodd" clip-rule="evenodd" fill="#FFFFFF" d="M339.667,29.378h1.722c1.37,0,2.484-0.132,3.343-0.411
		c0.849-0.276,1.552-0.861,2.111-1.747c0.561-0.875,0.853-1.97,0.853-3.266c0-1.978-0.495-3.432-1.469-4.349
		c-0.967-0.931-2.551-1.398-4.723-1.398c-0.811,0-1.418,0.031-1.837,0.073V29.378L339.667,29.378z M339.667,30.261v5.033
		c0,1.885,0.051,3.131,0.126,3.717c0.088,0.579,0.33,1.003,0.721,1.291c0.392,0.284,1.131,0.42,2.194,0.42h0.797v0.818H332.53
		v-0.818h0.639c1.021,0,1.719-0.127,2.115-0.392c0.414-0.253,0.661-0.656,0.76-1.195c0.115-0.558,0.166-1.834,0.166-3.84V23.546
		c0-1.916-0.051-3.133-0.166-3.69c-0.099-0.554-0.341-0.939-0.701-1.153c-0.368-0.208-1.164-0.315-2.373-0.315h-0.439v-0.819
		l3.004-0.099c2.395-0.082,4.276-0.126,5.627-0.126c2.464,0,4.369,0.188,5.704,0.582c1.337,0.391,2.437,1.077,3.277,2.07
		c0.864,0.985,1.306,2.243,1.306,3.75c0,1.302-0.315,2.461-0.889,3.457c-0.583,1.001-1.413,1.758-2.513,2.278
		c-1.088,0.523-3.001,0.779-5.744,0.779H339.667L339.667,30.261z"/>
	<path fill-rule="evenodd" clip-rule="evenodd" fill="#FFFFFF" d="M7,41.207V30.925h1.037c1.331,6.697,4.499,10.039,9.495,10.039
		c2.247,0,4.057-0.579,5.309-1.816c1.437-1.424,1.912-2.813,1.912-4.395c0-1.6-0.413-3.463-1.485-4.54
		c-1.092-1.069-3.162-2.245-6.048-3.468c-2.562-1.095-4.489-1.939-5.794-2.754c-1.303-0.835-2.627-1.73-3.362-3.047
		c-0.726-1.316-0.965-2.795-0.965-3.986c0-2.275,0.785-4.165,2.355-5.673C11.036,9.757,13.034,9,15.458,9
		c1.353,0,2.622,0.214,3.819,0.656c1.186,0.445,2.414,1.351,3.669,2.732c0.726-0.864,1.133-1.795,1.229-2.802h0.895v8.363h-0.895
		c-0.604-2.433-1.558-4.436-3.083-5.837c-1.511-1.395-3.351-2.095-5.348-2.101c-1.899,0-3.51,0.562-4.411,1.604
		c-0.869,1.015-1.325,2.284-1.325,3.513c0,1.479,0.667,3.08,1.78,4.101c1.106,1.038,3.095,2.231,5.97,3.522
		c2.74,1.224,4.805,2.197,6.054,2.959c1.247,0.735,2.349,1.624,3.111,2.942c0.754,1.325,1.068,2.509,1.068,4.236
		c0,2.732-0.911,4.951-2.731,6.665c-1.828,1.722-4.256,2.565-7.308,2.565c-3.505,0-6.422-1.339-8.766-4.023
		c-0.518,0.737-0.908,1.773-1.151,3.112H7L7,41.207z"/>
	<path fill-rule="evenodd" clip-rule="evenodd" fill="#FFFFFF" d="M244.465,41.207V30.925h1.039
		c1.327,6.697,4.494,10.039,9.491,10.039c2.252,0,4.044-0.579,5.308-1.816c1.432-1.424,1.916-2.813,1.916-4.395
		c0-1.6-0.416-3.463-1.494-4.54c-1.086-1.069-3.168-2.245-6.04-3.468c-2.562-1.095-4.504-1.939-5.806-2.754
		c-1.294-0.835-2.624-1.73-3.367-3.047c-0.723-1.316-0.956-2.795-0.956-3.986c0-2.275,0.788-4.165,2.354-5.673
		C248.495,9.757,250.505,9,252.918,9c1.348,0,2.625,0.214,3.812,0.656c1.19,0.445,2.426,1.351,3.677,2.732
		c0.729-0.864,1.137-1.795,1.236-2.802h0.894v8.363h-0.894c-0.606-2.433-1.565-4.436-3.092-5.837
		c-1.508-1.395-3.354-2.095-5.34-2.101c-1.907,0-3.514,0.562-4.411,1.604c-0.875,1.015-1.324,2.284-1.324,3.513
		c0,1.479,0.655,3.08,1.761,4.101c1.119,1.038,3.105,2.231,5.978,3.522c2.748,1.224,4.811,2.197,6.048,2.959
		c1.263,0.735,2.366,1.624,3.12,2.942c0.751,1.325,1.068,2.509,1.068,4.236c0,2.732-0.905,4.951-2.731,6.665
		c-1.825,1.722-4.256,2.565-7.308,2.565c-3.496,0-6.417-1.339-8.766-4.023c-0.518,0.737-0.906,1.773-1.142,3.112H244.465
		L244.465,41.207z"/>
</g>
</svg>
